HIERARCHY
ROOT Hip
{
	OFFSET	0.0000	0.0000	0.0000
	CHANNELS 6 Xposition Yposition Zposition Xrotation Yrotation Zrotation
	JOINT LowerSpine
	{
		OFFSET	0.0000	9.3884	-5.0805
		CHANNELS 3 Xrotation Yrotation Zrotation
		JOINT MiddleSpine
		{
			OFFSET	0.0000	8.5677	0.4475
			CHANNELS 3 Xrotation Yrotation Zrotation
			JOINT Chest
			{
				OFFSET	0.0000	10.6015	-2.3598
				CHANNELS 3 Xrotation Yrotation Zrotation
				JOINT Neck
				{
					OFFSET	0.0000	23.8901	-0.4968
					CHANNELS 3 Xrotation Yrotation Zrotation
					JOINT Head
					{
						OFFSET	0.0000	13.4910	3.6695
						CHANNELS 3 Xrotation Yrotation Zrotation
						End Site
						{
							OFFSET	0.0001	18.8505	0.5627
						}
					}
				}
				JOINT LClavicle
				{
					OFFSET	2.4119	23.0551	7.8988
					CHANNELS 3 Xrotation Yrotation Zrotation
					JOINT LShoulder
					{
						OFFSET	14.0907	3.3070	-5.3509
						CHANNELS 3 Xrotation Yrotation Zrotation
						JOINT LForearm
						{
							OFFSET	29.9314	-0.1063	-0.2594
							CHANNELS 3 Xrotation Yrotation Zrotation
							JOINT LHand
							{
								OFFSET	24.9691	0.0724	-0.1495
								CHANNELS 3 Xrotation Yrotation Zrotation
								JOINT LFinger1
								{
									OFFSET	9.6773	0.8463	2.6878
									CHANNELS 3 Xrotation Yrotation Zrotation
									JOINT LFinger11
									{
										OFFSET	3.6198	-0.8827	0.6378
										CHANNELS 3 Xrotation Yrotation Zrotation
										JOINT LFinger12
										{
											OFFSET	2.4711	-0.6028	0.4356
											CHANNELS 3 Xrotation Yrotation Zrotation
											End Site
											{
												OFFSET	1.7585	-0.5249	0.2852
											}
										}
									}
								}
								JOINT LFinger2
								{
									OFFSET	9.8217	0.9774	0.2340
									CHANNELS 3 Xrotation Yrotation Zrotation
									JOINT LFinger21
									{
										OFFSET	4.4757	0.0125	-0.0264
										CHANNELS 3 Xrotation Yrotation Zrotation
										JOINT LFinger22
										{
											OFFSET	2.4808	0.0075	-0.0151
											CHANNELS 3 Xrotation Yrotation Zrotation
											End Site
											{
												OFFSET	2.2283	-0.1573	0.0030
											}
										}
									}
								}
								JOINT LFinger3
								{
									OFFSET	9.3081	0.6521	-2.2021
									CHANNELS 3 Xrotation Yrotation Zrotation
									JOINT LFinger31
									{
										OFFSET	4.0612	-0.2056	-0.2543
										CHANNELS 3 Xrotation Yrotation Zrotation
										JOINT LFinger32
										{
											OFFSET	2.3142	-0.1164	-0.1454
											CHANNELS 3 Xrotation Yrotation Zrotation
											End Site
											{
												OFFSET	2.0462	-0.2516	-0.0967
											}
										}
									}
								}
								JOINT LFinger4
								{
									OFFSET	8.6376	-0.6565	-3.8031
									CHANNELS 3 Xrotation Yrotation Zrotation
									JOINT LFinger41
									{
										OFFSET	2.4980	-0.5209	-0.6896
										CHANNELS 3 Xrotation Yrotation Zrotation
										JOINT LFinger42
										{
											OFFSET	1.8318	-0.3815	-0.5060
											CHANNELS 3 Xrotation Yrotation Zrotation
											End Site
											{
												OFFSET	1.6259	-0.4467	-0.3730
											}
										}
									}
								}
								JOINT LFinger0
								{
									OFFSET	2.0018	-1.5152	1.5176
									CHANNELS 3 Xrotation Yrotation Zrotation
									JOINT LFinger01
									{
										OFFSET	3.7272	-1.2242	2.8101
										CHANNELS 3 Xrotation Yrotation Zrotation
										JOINT LFinger02
										{
											OFFSET	2.4543	-0.8782	1.7683
											CHANNELS 3 Xrotation Yrotation Zrotation
											End Site
											{
												OFFSET	1.8048	-0.6213	1.2358
											}
										}
									}
								}
							}
						}
					}
				}
				JOINT RClavicle
				{
					OFFSET	-2.4119	23.0551	7.8988
					CHANNELS 3 Xrotation Yrotation Zrotation
					JOINT RShoulder
					{
						OFFSET	-14.0932	3.3075	-5.3518
						CHANNELS 3 Xrotation Yrotation Zrotation
						JOINT RForearm
						{
							OFFSET	-29.9314	-0.1063	-0.2594
							CHANNELS 3 Xrotation Yrotation Zrotation
							JOINT RHand
							{
								OFFSET	-24.9691	0.0725	-0.1495
								CHANNELS 3 Xrotation Yrotation Zrotation
								JOINT RFinger1
								{
									OFFSET	-9.6773	0.8463	2.6878
									CHANNELS 3 Xrotation Yrotation Zrotation
									JOINT RFinger11
									{
										OFFSET	-3.6198	-0.8827	0.6378
										CHANNELS 3 Xrotation Yrotation Zrotation
										JOINT RFinger12
										{
											OFFSET	-2.4711	-0.6028	0.4356
											CHANNELS 3 Xrotation Yrotation Zrotation
											End Site
											{
												OFFSET	-1.7585	-0.5249	0.2852
											}
										}
									}
								}
								JOINT RFinger2
								{
									OFFSET	-9.8217	0.9774	0.2340
									CHANNELS 3 Xrotation Yrotation Zrotation
									JOINT RFinger21
									{
										OFFSET	-4.4757	0.0125	-0.0264
										CHANNELS 3 Xrotation Yrotation Zrotation
										JOINT RFinger22
										{
											OFFSET	-2.4808	0.0075	-0.0151
											CHANNELS 3 Xrotation Yrotation Zrotation
											End Site
											{
												OFFSET	-2.2283	-0.1573	0.0030
											}
										}
									}
								}
								JOINT RFinger3
								{
									OFFSET	-9.3081	0.6521	-2.2021
									CHANNELS 3 Xrotation Yrotation Zrotation
									JOINT RFinger31
									{
										OFFSET	-4.0612	-0.2056	-0.2543
										CHANNELS 3 Xrotation Yrotation Zrotation
										JOINT RFinger32
										{
											OFFSET	-2.3142	-0.1164	-0.1454
											CHANNELS 3 Xrotation Yrotation Zrotation
											End Site
											{
												OFFSET	-2.0462	-0.2516	-0.0967
											}
										}
									}
								}
								JOINT RFinger4
								{
									OFFSET	-8.6376	-0.6564	-3.8031
									CHANNELS 3 Xrotation Yrotation Zrotation
									JOINT RFinger41
									{
										OFFSET	-2.4980	-0.5209	-0.6896
										CHANNELS 3 Xrotation Yrotation Zrotation
										JOINT RFinger42
										{
											OFFSET	-1.8318	-0.3815	-0.5060
											CHANNELS 3 Xrotation Yrotation Zrotation
											End Site
											{
												OFFSET	-1.6259	-0.4467	-0.3730
											}
										}
									}
								}
								JOINT RFinger0
								{
									OFFSET	-2.0018	-1.5152	1.5176
									CHANNELS 3 Xrotation Yrotation Zrotation
									JOINT RFinger01
									{
										OFFSET	-3.7272	-1.2242	2.8101
										CHANNELS 3 Xrotation Yrotation Zrotation
										JOINT RFinger02
										{
											OFFSET	-2.4543	-0.8782	1.7683
											CHANNELS 3 Xrotation Yrotation Zrotation
											End Site
											{
												OFFSET	-1.8048	-0.6213	1.2358
											}
										}
									}
								}
							}
						}
					}
				}
			}
		}
	}
	JOINT RThigh
	{
		OFFSET	-10.0433	4.2439	-0.8279
		CHANNELS 3 Xrotation Yrotation Zrotation
		JOINT RShin
		{
			OFFSET	-0.8036	-43.6839	0.0000
			CHANNELS 3 Xrotation Yrotation Zrotation
			JOINT RFoot
			{
				OFFSET	0.0000	-42.8949	0.0000
				CHANNELS 3 Xrotation Yrotation Zrotation
				JOINT RToe
				{
					OFFSET	0.0000	-4.7145	9.8587
					CHANNELS 3 Xrotation Yrotation Zrotation
					End Site
					{
						OFFSET	0.0000	0.0000	6.6138
					}
				}
			}
		}
	}
	JOINT LThigh
	{
		OFFSET	10.0432	4.2442	-0.8279
		CHANNELS 3 Xrotation Yrotation Zrotation
		JOINT LShin
		{
			OFFSET	0.8037	-43.6842	0.0000
			CHANNELS 3 Xrotation Yrotation Zrotation
			JOINT LFoot
			{
				OFFSET	0.0000	-42.8949	0.0000
				CHANNELS 3 Xrotation Yrotation Zrotation
				JOINT LToe
				{
					OFFSET	0.0000	-4.7146	9.8587
					CHANNELS 3 Xrotation Yrotation Zrotation
					End Site
					{
						OFFSET	0.0000	0.0000	6.6138
					}
				}
			}
		}
	}
}
MOTION
Frames:	4
Frame Time: 0.0333333000
	0.0527	44.9134	2.8195	-6.710243	1.063305	-0.903177	0.000000	0.000000	0.000000	1.620916	0.033438	0.341829	5.403498	0.153005	1.134842	0.000000	0.000000	0.000000	0.000000	0.000000	0.000000	0.000000	0.000000	-10.660020	32.657630	5.051744	-65.468030	-0.109153	-77.794420	-0.737064	0.000000	0.000000	0.000000	0.000000	0.000000	0.000000	0.000000	0.000000	0.000000	0.000000	0.000000	0.000000	0.000000	0.000000	0.000000	0.000000	0.000000	0.000000	0.000000	0.000000	0.000000	0.000000	0.000000	0.000000	0.000000	0.000000	0.000000	0.000000	0.000000	0.000000	0.000000	0.000000	0.000000	0.000000	0.000000	0.000000	0.000000	0.000000	0.000000	0.000000	0.000000	0.000000	0.000000	0.000000	0.000000	0.000000	0.000000	0.000000	0.000000	0.000000	10.264840	34.381450	-13.321110	70.508510	-8.999864	86.551700	2.587884	0.000000	0.000000	0.000000	0.000000	0.000000	0.000000	0.000000	0.000000	0.000000	0.000000	0.000000	0.000000	0.000000	0.000000	0.000000	0.000000	0.000000	0.000000	0.000000	0.000000	0.000000	0.000000	0.000000	0.000000	0.000000	0.000000	0.000000	0.000000	0.000000	0.000000	0.000000	0.000000	0.000000	0.000000	0.000000	0.000000	0.000000	0.000000	0.000000	0.000000	0.000000	0.000000	0.000000	0.000000	0.000000	0.000000	0.000000	0.000000	-92.462300	0.793319	-2.403868	96.244360	-0.631091	5.071864	-2.674710	-0.353907	-0.164322	0.000000	0.000000	0.000000	-92.741390	6.756271	-9.296021	97.129590	1.156558	-0.406992	-4.197064	1.226835	0.636771	0.000000	0.000000	0.000000
	-0.5076	45.1325	7.6147	-5.714183	2.070768	-1.568524	0.000000	0.000000	0.000000	1.578086	-0.100469	0.481141	5.263296	-0.282326	1.613042	0.000000	0.000000	0.000000	0.000000	0.000000	0.000000	0.000000	0.000000	-11.356800	28.827830	1.659755	-62.836640	-1.034788	-78.144320	-0.824395	0.000000	0.000000	0.000000	0.000000	0.000000	0.000000	0.000000	0.000000	0.000000	0.000000	0.000000	0.000000	0.000000	0.000000	0.000000	0.000000	0.000000	0.000000	0.000000	0.000000	0.000000	0.000000	0.000000	0.000000	0.000000	0.000000	0.000000	0.000000	0.000000	0.000000	0.000000	0.000000	0.000000	0.000000	0.000000	0.000000	0.000000	0.000000	0.000000	0.000000	0.000000	0.000000	0.000000	0.000000	0.000000	0.000000	0.000000	0.000000	0.000000	0.000000	11.071710	28.774850	-8.858564	66.647980	-8.706959	83.337880	1.532400	0.000000	0.000000	0.000000	0.000000	0.000000	0.000000	0.000000	0.000000	0.000000	0.000000	0.000000	0.000000	0.000000	0.000000	0.000000	0.000000	0.000000	0.000000	0.000000	0.000000	0.000000	0.000000	0.000000	0.000000	0.000000	0.000000	0.000000	0.000000	0.000000	0.000000	0.000000	0.000000	0.000000	0.000000	0.000000	0.000000	0.000000	0.000000	0.000000	0.000000	0.000000	0.000000	0.000000	0.000000	0.000000	0.000000	0.000000	0.000000	-92.880460	0.711612	-3.247537	95.336400	-0.600722	6.051502	-1.687277	-0.031360	-0.013874	0.000000	0.000000	0.000000	-92.838130	6.563697	-9.776964	94.682200	1.170490	0.362795	-3.098869	0.927159	0.473916	0.000000	0.000000	0.000000
	-1.0276	45.1949	12.8830	-4.782677	2.558604	-1.890024	0.000000	0.000000	0.000000	1.314050	-0.133782	0.509336	4.382699	-0.400303	1.708350	0.000000	0.000000	0.000000	0.000000	0.000000	0.000000	0.000000	0.000000	-11.957280	24.563980	-2.670305	-60.261970	-1.920751	-75.820270	-0.776517	0.000000	0.000000	0.000000	0.000000	0.000000	0.000000	0.000000	0.000000	0.000000	0.000000	0.000000	0.000000	0.000000	0.000000	0.000000	0.000000	0.000000	0.000000	0.000000	0.000000	0.000000	0.000000	0.000000	0.000000	0.000000	0.000000	0.000000	0.000000	0.000000	0.000000	0.000000	0.000000	0.000000	0.000000	0.000000	0.000000	0.000000	0.000000	0.000000	0.000000	0.000000	0.000000	0.000000	0.000000	0.000000	0.000000	0.000000	0.000000	0.000000	0.000000	11.791960	23.074450	-3.409051	63.521150	-8.903487	77.594380	0.753388	0.000000	0.000000	0.000000	0.000000	0.000000	0.000000	0.000000	0.000000	0.000000	0.000000	0.000000	0.000000	0.000000	0.000000	0.000000	0.000000	0.000000	0.000000	0.000000	0.000000	0.000000	0.000000	0.000000	0.000000	0.000000	0.000000	0.000000	0.000000	0.000000	0.000000	0.000000	0.000000	0.000000	0.000000	0.000000	0.000000	0.000000	0.000000	0.000000	0.000000	0.000000	0.000000	0.000000	0.000000	0.000000	0.000000	0.000000	0.000000	-92.847760	0.547514	-3.565762	94.760960	-0.605935	6.536920	-1.002152	-0.066097	-0.032543	0.000000	0.000000	0.000000	-93.434550	6.451589	-9.694916	93.966510	1.161927	0.487959	-2.252984	0.739169	0.371443	0.000000	0.000000	0.000000
	-1.5036	45.1559	18.4841	-4.316334	2.756360	-2.060203	0.000000	0.000000	0.000000	1.101626	-0.130274	0.494351	3.667010	-0.394332	1.656999	0.000000	0.000000	0.000000	0.000000	0.000000	0.000000	0.000000	0.000000	-12.266290	19.608680	-8.360782	-58.189090	-2.960438	-70.278930	-0.580776	0.000000	0.000000	0.000000	0.000000	0.000000	0.000000	0.000000	0.000000	0.000000	0.000000	0.000000	0.000000	0.000000	0.000000	0.000000	0.000000	0.000000	0.000000	0.000000	0.000000	0.000000	0.000000	0.000000	0.000000	0.000000	0.000000	0.000000	0.000000	0.000000	0.000000	0.000000	0.000000	0.000000	0.000000	0.000000	0.000000	0.000000	0.000000	0.000000	0.000000	0.000000	0.000000	0.000000	0.000000	0.000000	0.000000	0.000000	0.000000	0.000000	0.000000	12.164310	17.340590	3.290611	60.691870	-8.927565	69.209210	0.215916	0.000000	0.000000	0.000000	0.000000	0.000000	0.000000	0.000000	0.000000	0.000000	0.000000	0.000000	0.000000	0.000000	0.000000	0.000000	0.000000	0.000000	0.000000	0.000000	0.000000	0.000000	0.000000	0.000000	0.000000	0.000000	0.000000	0.000000	0.000000	0.000000	0.000000	0.000000	0.000000	0.000000	0.000000	0.000000	0.000000	0.000000	0.000000	0.000000	0.000000	0.000000	0.000000	0.000000	0.000000	0.000000	0.000000	0.000000	0.000000	-92.143410	0.188782	-3.409734	94.543420	-0.615867	6.656435	-0.472361	-0.097957	-0.047099	0.000000	0.000000	0.000000	-93.838570	6.239087	-9.180518	94.322080	1.148963	0.198442	-2.007901	0.720608	0.360095	0.000000	0.000000	0.000000
